<?xml version="1.0" encoding="utf-8"?>
<svg xmlns="http://www.w3.org/2000/svg" viewBox="0 0 500 500" xmlns:bx="https://boxy-svg.com">
  <defs>
    <bx:export>
      <bx:file format="svg"/>
    </bx:export>
  </defs>
  <ellipse style="fill: rgb(200, 227, 240);" cx="250" cy="250" rx="241.505" ry="241.505"/>
  <g id="svg1" style="" transform="matrix(0.251928, 0, 0, 0.251928, 178.678546, 196.07294)">
    <g id="g1" transform="matrix(1, 0, 0, 1, -183.564059, -360.609136)">
      <path id="path1" d="M 800,20 160,500 1200,1890 v 2130 c 0,206.67 18.33,435 55,685 36.67,250 85,475 145,675 L 800,5040 V 3620 H 0 v 1880 l 2160,1230 c 53.33,33.33 110,56.67 170,70 60,13.33 123.33,20 190,20 160,0 306.67,-40 440,-120 133.33,-80 233.33,-190 300,-330 l 310,-670 c 133.33,-293.33 336.67,-513.33 610,-660 273.33,-146.67 613.33,-220 1020,-220 V 4020 H 4810 L 7000,200 6650,0 4280,4130 c -266.67,86.67 -508.33,211.67 -725,375 -216.67,163.33 -401.67,361.67 -555,595 -66.67,-193.33 -118.33,-415 -155,-665 -36.67,-250 -48.33,-481.67 -35,-695 L 3600,2620 V 20 h -800 v 2000 l -710,1020 -90,-1420 z m 2200,7000 c -220,0 -408.33,78.33 -565,235 -156.67,156.67 -235,345 -235,565 0,220 78.33,408.33 235,565 156.67,156.67 345,235 565,235 220,0 408.33,-78.33 565,-235 156.67,-156.67 235,-345 235,-565 0,-220 -78.33,-408.33 -235,-565 -156.67,-156.67 -345,-235 -565,-235" style="fill-opacity: 1; fill-rule: nonzero; stroke: none; fill: rgb(17, 147, 212);" transform="matrix(0.13333333,0,0,-0.13333333,0,1149.3333)"/>
    </g>
  </g>
</svg>