<svg class="mx-auto h-12 w-auto" viewBox="0 0 24 24" xmlns="http://www.w3.org/2000/svg">
  <path 
    clip-rule="evenodd" 
    d="M12 2C6.48 2 2 6.48 2 12C2 17.52 6.48 22 12 22C17.52 22 22 17.52 22 12C22 6.48 17.52 2 12 2ZM12 20C7.58 20 4 16.42 4 12C4 7.58 7.58 4 12 4C16.42 4 20 7.58 20 12C20 16.42 16.42 20 12 20ZM16.5 11.5H13V8C13 7.45 12.55 7 12 7C11.45 7 11 7.45 11 8V11.5H7.5C6.95 11.5 6.5 11.95 6.5 12.5C6.5 13.05 6.95 13.5 7.5 13.5H11V17C11 17.55 11.45 18 12 18C12.55 18 13 17.55 13 17V13.5H16.5C17.05 13.5 17.5 13.05 17.5 12.5C17.5 11.95 17.05 11.5 16.5 11.5Z" 
    fill="rgb(25, 230, 128)" 
    fill-rule="evenodd"/>
</svg>
